#!OML:ASF F:\VICON\USERDATA\INSTALL\Justin_Nancy\Justin_Nancy.ASF
:FULLY-SPECIFIED
:DEGREES
146
root -8.93123 17.3819 -13.5381 0.299137 -1.79168 5.21757
lowerback 6.49805 -1.05714 -6.15729
upperback 0.106848 -1.805 1.84638
thorax -3.28852 -0.787871 5.55698
lowerneck -17.4459 -3.0767 -9.20757
upperneck 22.3355 -2.9465 4.97051
head 10.237 -1.56464 2.89237
rclavicle -3.17062e-014 -1.59028e-015
rhumerus -36.7802 -21.6832 -72.3604
rradius 24.4097
rwrist 14.8422
rhand -12.1467 10.0577
rfingers 7.12502
rthumb 13.9156 -19.4567
lclavicle -3.17062e-014 -1.59028e-015
lhumerus -24.2398 5.43987 84.8294
lradius 31.2451
lwrist -6.86734
lhand -16.6068 26.4386
lfingers 7.12502
lthumb 9.61469 56.1992
rfemur -25.8331 0.182235 18.6057
rtibia 24.2613
rfoot -0.225174 -5.11474
rtoes 3.81316
lfemur 8.08033 -3.2615 -29.6685
ltibia 25.3392
lfoot -9.76029 -6.28829
ltoes -11.0751
147
root -8.94525 17.4041 -13.3755 0.260871 -1.88854 5.05172
lowerback 6.42042 -1.14812 -5.99334
upperback 0.0303901 -1.90578 1.99773
thorax -3.31047 -0.836863 5.63063
lowerneck -17.1168 -2.94442 -9.44994
upperneck 22.2746 -2.70868 4.9127
head 10.1376 -1.48591 2.94572
rclavicle 2.27608e-014 -6.36111e-015
rhumerus -36.717 -21.5949 -72.1844
rradius 24.1642
rwrist 15.1297
rhand -12.1414 9.79279
rfingers 7.12502
rthumb 13.9208 -19.7212
lclavicle 2.27608e-014 -6.36111e-015
lhumerus -24.819 6.34277 84.8165
lradius 31.2156
lwrist -7.3495
lhand -16.8498 26.1624
lfingers 7.12502
lthumb 9.38025 55.9337
rfemur -25.3425 0.271823 18.8887
rtibia 24.4227
rfoot 0.569467 -4.47295
rtoes 4.25885
lfemur 7.61862 -3.35656 -29.4684
ltibia 27.0687
lfoot -8.3907 -6.52133
ltoes -11.1937
148
root -8.96607 17.4289 -13.2118 0.272858 -1.95348 4.64888
lowerback 6.32462 -1.1384 -5.60464
upperback -0.00520505 -1.85503 2.12002
thorax -3.30854 -0.816227 5.53143
lowerneck -17.0407 -2.92443 -9.41349
upperneck 22.3213 -2.69513 4.89304
head 10.138 -1.48057 2.93547
rclavicle -1.96797e-014 -9.54166e-015
rhumerus -36.7348 -21.8243 -72.0455
rradius 23.9956
rwrist 15.267
rhand -12.208 10.116
rfingers 7.12502
rthumb 13.8565 -19.4025
lclavicle -1.96797e-014 -9.54166e-015
lhumerus -25.0182 6.92724 84.7652
lradius 30.7895
lwrist -8.23358
lhand -17.6689 25.0437
lfingers 7.12502
lthumb 8.58985 54.8489
rfemur -24.8068 0.506055 19.4276
rtibia 24.551
rfoot 0.855323 -4.12854
rtoes 5.87398
lfemur 6.98742 -3.38728 -28.8889
ltibia 28.9316
lfoot -6.87294 -6.99007
ltoes -10.6161
149
root -8.99367 17.4512 -13.051 0.223428 -1.81509 4.31494
lowerback 6.3276 -0.911613 -5.10929
upperback 0.219514 -1.51889 1.94694
thorax -3.13858 -0.668743 5.03497
lowerneck -17.9491 -3.21613 -8.78124
upperneck 22.5993 -3.16956 4.75801
head 10.4342 -1.65271 2.71411
rclavicle 1.12313e-014 -8.74653e-015
rhumerus -36.6217 -23.3519 -71.9716
rradius 23.9731
rwrist 15.6935
rhand -12.0426 10.1438
rfingers 7.12502
rthumb 14.016 -19.3636
lclavicle 1.12313e-014 -8.74653e-015
lhumerus -24.499 6.47857 84.7584
lradius 30.077
lwrist -8.66258
lhand -19.3574 21.6755
lfingers 7.12502
lthumb 6.96016 51.5411
rfemur -24.186 0.866044 19.8247
rtibia 24.7121
rfoot 0.535426 -4.33637
rtoes 8.81171
lfemur 6.29804 -3.52163 -28.2762
ltibia 30.8111
lfoot -4.99164 -7.73536
ltoes -10.7692
150
root -9.01889 17.4704 -12.8897 0.191042 -1.74067 4.2211
lowerback 6.25128 -1.12155 -5.26894
upperback -0.0554971 -1.80171 2.21146
thorax -3.33386 -0.7924 5.43079
lowerneck -17.0915 -2.96706 -9.207
upperneck 22.5636 -2.76035 4.68246
head 10.2342 -1.52082 2.81974
rclavicle -4.22417e-015 -1.03368e-014
rhumerus -36.8955 -22.451 -71.7722
rradius 23.8817
rwrist 15.6587
rhand -11.781 10.7014
rfingers 7.12502
rthumb 14.268 -18.7884
lclavicle -4.22417e-015 -1.03368e-014
lhumerus -25.535 7.51927 84.7923
lradius 29.9459
lwrist -7.78335
lhand -16.8174 26.1479
lfingers 7.12502
lthumb 9.41156 55.9178
rfemur -23.6118 1.09462 19.9929
rtibia 24.8617
rfoot 0.0133761 -4.56498
rtoes 10.2267
lfemur 5.48515 -3.44059 -27.8763
ltibia 32.696
lfoot -2.87855 -8.8143
ltoes -11.8091
151
root -9.04425 17.4858 -12.7294 0.161026 -1.72014 4.27202
lowerback 6.06983 -1.08821 -5.37488
upperback -0.00946359 -1.75527 2.2157
thorax -3.18689 -0.773766 5.48467
lowerneck -17.2715 -3.02895 -9.26329
upperneck 22.6758 -2.81804 4.69307
head 10.315 -1.55067 2.82578
rclavicle -3.77691e-015 -1.66979e-014
rhumerus -36.8808 -22.494 -71.7191
rradius 23.9123
rwrist 15.5652
rhand -11.5522 11.2514
rfingers 7.12502
rthumb 14.4885 -18.2228
lclavicle -3.77691e-015 -1.66979e-014
lhumerus -25.8108 7.80133 84.8984
lradius 29.925
lwrist -7.17958
lhand -15.7233 28.3353
lfingers 7.12502
lthumb 10.467 58.0547
rfemur -23.0671 1.31006 19.9988
rtibia 25.0275
rfoot -0.462647 -4.90354
rtoes 11.0569
lfemur 4.56673 -3.28657 -27.6216
ltibia 34.571
lfoot -0.449381 -9.73279
ltoes -11.8159
152
root -9.06723 17.5034 -12.5738 0.0982023 -1.80857 3.99691
lowerback 5.98109 -1.02557 -5.08509
upperback 0.104864 -1.64483 2.2444
thorax -3.03968 -0.730705 5.33572
lowerneck -17.5395 -3.09356 -9.17977
upperneck 22.6647 -2.89891 4.66857
head 10.3665 -1.58003 2.79016
rclavicle 8.74653e-015 -1.19271e-014
rhumerus -36.6782 -22.1902 -72.1583
rradius 24.189
rwrist 15.0367
rhand -11.8564 12.0817
rfingers 7.12502
rthumb 14.1954 -17.4133
lclavicle 8.74653e-015 -1.19271e-014
lhumerus -25.8195 8.15378 84.8548
lradius 29.3622
lwrist -8.03709
lhand -16.872 24.9895
lfingers 7.12502
lthumb 9.35886 54.7617
rfemur -22.5038 1.71886 20.3229
rtibia 25.1031
rfoot -0.832106 -5.04898
rtoes 11.9289
lfemur 3.56568 -3.13765 -27.0163
ltibia 36.4818
lfoot 2.47824 -10.5016
ltoes -10.8116
153
root -9.09533 17.5243 -12.4245 0.0670777 -1.96407 3.59391
lowerback 5.97107 -0.971862 -4.76299
upperback 0.0980388 -1.5473 2.3466
thorax -3.05911 -0.685353 5.25191
lowerneck -17.4808 -3.08663 -9.2257
upperneck 22.6065 -2.88556 4.68909
head 10.3343 -1.57519 2.80653
rclavicle -3.926e-015 1.03368e-014
rhumerus -36.5643 -21.8874 -72.4193
rradius 24.151
rwrist 14.882
rhand -12.4202 13.7238
rfingers 7.12502
rthumb 13.6521 -15.8085
lclavicle -3.926e-015 1.03368e-014
lhumerus -25.9561 8.55515 84.7559
lradius 28.7391
lwrist -9.16757
lhand -19.0355 19.963
lfingers 7.12502
lthumb 7.27087 49.8181
rfemur -21.959 2.11729 20.8382
rtibia 25.084
rfoot -1.17207 -4.97125
rtoes 12.8792
lfemur 2.45376 -2.74757 -26.183
ltibia 38.4506
lfoot 5.20729 -11.4912
ltoes -12.0633
154
root -9.12123 17.5479 -12.2769 0.0469901 -1.8924 3.15739
lowerback 6.03986 -0.947371 -4.40937
upperback -0.00147696 -1.48915 2.47478
thorax -3.21376 -0.653844 5.18469
lowerneck -17.145 -3.10189 -9.18155
upperneck 22.4799 -2.93274 4.61839
head 10.227 -1.60323 2.76662
rclavicle -2.0773e-014 7.95139e-016
rhumerus -36.6013 -21.952 -72.3329
rradius 23.9298
rwrist 14.8623
rhand -12.2104 12.9666
rfingers 7.12502
rthumb 13.8542 -16.552
lclavicle -2.0773e-014 7.95139e-016
lhumerus -26.3839 8.68989 84.7681
lradius 28.3328
lwrist -9.79275
lhand -20.2095 17.0558
lfingers 7.12502
lthumb 6.1376 46.9469
rfemur -21.239 1.95622 21.4813
rtibia 24.8031
rfoot -1.35508 -4.75871
rtoes 12.2573
lfemur 1.2872 -2.6597 -25.3394
ltibia 40.5268
lfoot 7.50054 -12.4962
ltoes -13.2033
155
root -9.13773 17.5685 -12.1238 -0.0263262 -1.67018 2.85267
lowerback 6.13679 -0.95216 -3.96859
upperback -0.0168886 -1.46715 2.48501
thorax -3.29712 -0.64707 4.94575
lowerneck -17.1723 -3.16977 -9.10904
upperneck 22.3864 -3.03833 4.59768
head 10.205 -1.64609 2.7307
rclavicle 2.23633e-015 3.97569e-015
rhumerus -36.5406 -21.7453 -72.5444
rradius 23.9396
rwrist 14.4616
rhand -12.1989 12.2392
rfingers 7.12502
rthumb 13.8653 -17.2786
lclavicle 2.23633e-015 3.97569e-015
lhumerus -26.7364 8.47527 84.8367
lradius 28.0375
lwrist -9.92617
lhand -20.0137 17.998
lfingers 7.12502
lthumb 6.32658 47.8835
rfemur -20.2792 1.6344 21.9152
rtibia 24.3271
rfoot -1.62931 -4.57969
rtoes 10.8565
lfemur 0.141661 -2.75838 -24.7316
ltibia 42.6493
lfoot 9.05756 -13.9685
ltoes -14.6182
156
root -9.15539 17.5954 -11.9677 -0.0454321 -1.59425 2.1814
lowerback 6.04705 -0.900427 -3.19485
upperback 0.0541908 -1.3369 2.59939
thorax -3.20196 -0.597481 4.61069
lowerneck -17.3464 -3.23548 -9.09335
upperneck 22.4824 -3.13763 4.66784
head 10.281 -1.68134 2.73965
rclavicle -2.88238e-014 7.95139e-016
rhumerus -36.5548 -20.8404 -73.1622
rradius 24.507
rwrist 13.2992
rhand -12.5023 11.8865
rfingers 7.12502
rthumb 13.5729 -17.6511
lclavicle -2.88238e-014 7.95139e-016
lhumerus -26.7849 8.12356 85.0119
lradius 27.8009
lwrist -9.95744
lhand -17.4099 23.9254
lfingers 7.12502
lthumb 8.83985 53.7202
rfemur -19.2798 1.54706 22.7444
rtibia 23.7249
rfoot -1.95757 -4.57988
rtoes 9.77608
lfemur -1.12965 -2.75555 -23.71
ltibia 44.7918
lfoot 10.1957 -16.3373
ltoes -15.2998
157
root -9.17804 17.6203 -11.8186 -0.067122 -1.69929 1.4335
lowerback 6.03396 -0.819491 -2.49602
upperback 0.0864265 -1.17303 2.80864
thorax -3.18731 -0.525996 4.41798
lowerneck -17.4772 -3.28028 -9.09949
upperneck 22.6351 -3.18777 4.66188
head 10.3653 -1.70619 2.73275
rclavicle 1.3418e-015 -1.51076e-014
rhumerus -36.4825 -20.1756 -73.5365
rradius 24.9539
rwrist 12.4829
rhand -12.2861 9.78878
rfingers 7.12502
rthumb 13.7813 -19.7348
lclavicle 1.3418e-015 -1.51076e-014
lhumerus -26.8455 7.94856 85.2045
lradius 27.4654
lwrist -9.95407
lhand -14.1197 30.1401
lfingers 7.12502
lthumb 12.0137 59.7753
rfemur -18.2906 1.73245 23.663
rtibia 23.0734
rfoot -2.13236 -4.92926
rtoes 10.5175
lfemur -2.48423 -2.65922 -22.5741
ltibia 46.8943
lfoot 12.3021 -18.1059
ltoes -12.6608
158
root -9.19656 17.6334 -11.6762 -0.0349948 -1.67558 0.997215
lowerback 6.05827 -0.772977 -2.05109
upperback 0.0740046 -1.07654 2.90906
thorax -3.22902 -0.483016 4.26298
lowerneck -17.6529 -3.34552 -9.12542
upperneck 22.6794 -3.2693 4.71588
head 10.4226 -1.73783 2.74442
rclavicle 1.09332e-015 -2.38542e-014
rhumerus -36.12 -19.9641 -73.7192
rradius 24.8111
rwrist 12.1948
rhand -12.1428 8.75411
rfingers 7.12502
rthumb 13.9194 -20.76
lclavicle 1.09332e-015 -2.38542e-014
lhumerus -26.9408 7.76949 85.3821
lradius 27.0292
lwrist -9.96616
lhand -11.6793 33.4465
lfingers 7.12502
lthumb 14.366 62.9294
rfemur -17.3781 1.48766 24.2481
rtibia 22.3713
rfoot -2.37277 -4.91794
rtoes 10.5991
lfemur -3.91668 -2.64815 -21.7956
ltibia 48.9584
lfoot 14.8583 -18.8042
ltoes -8.40936
159
root -9.21225 17.6491 -11.5328 -0.162139 -1.78198 0.732646
lowerback 6.10661 -0.712808 -1.80736
upperback 0.131996 -0.977611 2.98698
thorax -3.20752 -0.438131 4.19777
lowerneck -17.6443 -3.3129 -9.23353
upperneck 22.6962 -3.21252 4.79259
head 10.426 -1.71234 2.79876
rclavicle -4.57205e-015 1.35174e-014
rhumerus -35.8526 -19.4277 -74.0099
rradius 24.8787
rwrist 11.8134
rhand -12.4467 9.35209
rfingers 7.12502
rthumb 13.6265 -20.1819
lclavicle -4.57205e-015 1.35174e-014
lhumerus -27.0036 8.10559 85.4252
lradius 26.522
lwrist -10.7451
lhand -17.497 23.8356
lfingers 7.12502
lthumb 8.75578 53.634
rfemur -16.31 1.26174 24.6379
rtibia 21.6876
rfoot -2.67961 -4.67598
rtoes 10.5127
lfemur -5.12136 -2.52091 -21.2754
ltibia 50.9515
lfoot 16.075 -19.0084
ltoes -5.70656
